<svg width="41" height="41" viewBox="0 0 41 41" fill="none" xmlns="http://www.w3.org/2000/svg">
<path d="M10.5 4.63477C10.5 4.30325 10.3683 3.9853 10.1339 3.75088C9.89946 3.51646 9.58152 3.38477 9.25 3.38477C8.91848 3.38477 8.60054 3.51646 8.36612 3.75088C8.1317 3.9853 8 4.30325 8 4.63477V12.1348C7.99971 13.5756 8.49723 14.9722 9.40837 16.0884C10.3195 17.2045 11.5883 17.9716 13 18.2598V37.1348C13 37.4663 13.1317 37.7842 13.3661 38.0187C13.6005 38.2531 13.9185 38.3848 14.25 38.3848C14.5815 38.3848 14.8995 38.2531 15.1339 38.0187C15.3683 37.7842 15.5 37.4663 15.5 37.1348V18.2598C16.9117 17.9716 18.1805 17.2045 19.0916 16.0884C20.0028 14.9722 20.5003 13.5756 20.5 12.1348V4.63477C20.5 4.30325 20.3683 3.9853 20.1339 3.75088C19.8995 3.51646 19.5815 3.38477 19.25 3.38477C18.9185 3.38477 18.6005 3.51646 18.3661 3.75088C18.1317 3.9853 18 4.30325 18 4.63477V12.1348C18.0004 12.9106 17.7602 13.6674 17.3124 14.301C16.8647 14.9346 16.2314 15.4137 15.5 15.6723V4.63477C15.5 4.30325 15.3683 3.9853 15.1339 3.75088C14.8995 3.51646 14.5815 3.38477 14.25 3.38477C13.9185 3.38477 13.6005 3.51646 13.3661 3.75088C13.1317 3.9853 13 4.30325 13 4.63477V15.6723C12.2686 15.4137 11.6353 14.9346 11.1876 14.301C10.7398 13.6674 10.4996 12.9106 10.5 12.1348V4.63477ZM28 37.1348V20.8848H24.25C23.9185 20.8848 23.6005 20.7531 23.3661 20.5186C23.1317 20.2842 23 19.9663 23 19.6348V9.63477C23 7.97727 23.815 6.42727 24.9275 5.31227C26.0425 4.19977 27.5925 3.38477 29.25 3.38477C29.5815 3.38477 29.8995 3.51646 30.1339 3.75088C30.3683 3.9853 30.5 4.30325 30.5 4.63477V37.1348C30.5 37.4663 30.3683 37.7842 30.1339 38.0187C29.8995 38.2531 29.5815 38.3848 29.25 38.3848C28.9185 38.3848 28.6005 38.2531 28.3661 38.0187C28.1317 37.7842 28 37.4663 28 37.1348Z" fill="#5B9F78"/>
</svg>
