<svg width="32" height="33" viewBox="0 0 32 33" fill="none" xmlns="http://www.w3.org/2000/svg">
<path d="M9 21.8848H3C1.897 21.8848 1 20.9878 1 19.8848V13.8848C1 12.7818 1.897 11.8848 3 11.8848H9C10.103 11.8848 11 12.7818 11 13.8848V19.8848C11 20.9878 10.103 21.8848 9 21.8848ZM3 13.8848V19.8848H9V13.8848H3ZM16 30.8848C15.638 30.8848 15.28 30.8708 14.924 30.8448C10.572 30.5128 6.564 28.1128 4.201 24.4248L5.886 23.3448C6.88999 24.9085 8.24186 26.2191 9.83603 27.174C11.4302 28.1289 13.2235 28.7025 15.076 28.8498C15.381 28.8728 15.689 28.8848 16 28.8848V30.8848ZM23 30.8848L20.9 29.8848C19.2 29.0848 18 27.2848 18 25.3848V18.8848H28V25.3848C28 27.2848 26.9 29.0848 25.1 29.8848L23 30.8848ZM20 20.8848V25.3848C20 26.5848 20.7 27.5848 21.7 28.0848L23 28.6848L24.3 28.0848C25.3 27.5848 26 26.4848 26 25.3848V20.8848H20ZM27.302 12.8848C27.756 14.1668 28 15.5058 28 16.8848H30C30 15.5148 29.801 14.1768 29.416 12.8848H27.302ZM27 10.8848H24C22.897 10.8848 22 9.9878 22 8.8848V5.8848C22 4.7818 22.897 3.8848 24 3.8848H27C28.103 3.8848 29 4.7818 29 5.8848V8.8848C29 9.9878 28.103 10.8848 27 10.8848ZM24 5.8848V8.8848H27V5.8848H24ZM20 3.4678C18.702 3.08032 17.3546 2.88392 16 2.8848C13.6484 2.87995 11.3337 3.46963 9.27105 4.59904C7.20839 5.72845 5.4647 7.36093 4.202 9.3448L5.886 10.4248C7.34161 8.13764 9.53104 6.41284 12.0954 5.5331C14.6598 4.65336 17.4469 4.67089 20 5.5828V3.4678Z" fill="#5B9F78"/>
</svg>
