<svg width="40" height="41" viewBox="0 0 40 41" fill="none" xmlns="http://www.w3.org/2000/svg">
<g clip-path="url(#clip0_231_445)">
<path d="M30 35.0514V34.2181M30 35.0514C30 36.3775 29.4733 37.6493 28.5356 38.587C27.5979 39.5247 26.3261 40.0514 25 40.0514H20.8334V39.6348L21.2 39.0398C23.14 35.8872 24.167 32.2581 24.1667 28.5564V28.3848H30M30 35.0514C30 36.3775 30.5268 37.6493 31.4645 38.587C32.4022 39.5247 33.674 40.0514 35 40.0514H39.1667V39.6348L38.8 39.0398C36.8601 35.8872 35.8331 32.2581 35.8334 28.5564V28.3848H30M30 28.3848V0.884766M5.83337 23.3848V19.2181C5.83337 18.113 6.27236 17.0532 7.05376 16.2718C7.83516 15.4904 8.89497 15.0514 10 15.0514C11.1051 15.0514 12.1649 15.4904 12.9463 16.2718C13.7277 17.0532 14.1667 18.113 14.1667 19.2181V23.3848M4.16671 40.0514V38.3348C4.16628 33.4283 3.08272 28.5825 0.993374 24.1431L0.833374 23.8014V23.3848H19.1667V23.8014L19.0067 24.1431C16.9174 28.5825 15.8338 33.4283 15.8334 38.3348V40.0514H4.16671Z" stroke="#5B9F78" stroke-width="2"/>
</g>
<defs>
<clipPath id="clip0_231_445">
<rect width="40" height="40" fill="white" transform="translate(0 0.884766)"/>
</clipPath>
</defs>
</svg>
