<svg width="40" height="41" viewBox="0 0 40 41" fill="none" xmlns="http://www.w3.org/2000/svg">
<path d="M35 18.8516V14.2183C35 11.4683 32.75 9.21826 30 9.21826H23.3333C22.05 9.21826 20.8833 9.71826 20 10.5183C19.1166 9.71826 17.95 9.21826 16.6666 9.21826H9.99998C7.24998 9.21826 4.99998 11.4683 4.99998 14.2183V18.8516C3.98331 19.7683 3.33331 21.0849 3.33331 22.5516V32.5516H6.66665V29.2183H33.3333V32.5516H36.6666V22.5516C36.6666 21.0849 36.0166 19.7683 35 18.8516ZM23.3333 12.5516H30C30.9166 12.5516 31.6666 13.3016 31.6666 14.2183V17.5516H21.6666V14.2183C21.6666 13.3016 22.4166 12.5516 23.3333 12.5516ZM8.33331 14.2183C8.33331 13.3016 9.08331 12.5516 9.99998 12.5516H16.6666C17.5833 12.5516 18.3333 13.3016 18.3333 14.2183V17.5516H8.33331V14.2183ZM6.66665 25.8849V22.5516C6.66665 21.6349 7.41665 20.8849 8.33331 20.8849H31.6666C32.5833 20.8849 33.3333 21.6349 33.3333 22.5516V25.8849H6.66665Z" fill="#5B9F78"/>
</svg>
