<svg width="33" height="33" viewBox="0 0 33 33" fill="none" xmlns="http://www.w3.org/2000/svg">
<path d="M16.5 24.8848L10.41 16.2848C9.41315 15.1078 8.77121 13.6719 8.55892 12.1443C8.34664 10.6166 8.57273 9.06005 9.21088 7.65592C9.84902 6.25179 10.873 5.05785 12.1634 4.21316C13.4539 3.36846 14.9578 2.90778 16.5 2.88477C18.6377 2.90589 20.68 3.77336 22.1794 5.29718C23.6789 6.821 24.5133 8.87696 24.5 11.0148C24.5008 12.8797 23.8659 14.6892 22.7 16.1448L16.5 24.8848ZM16.5 4.88477C14.8918 4.90323 13.3567 5.55914 12.2318 6.70847C11.1068 7.8578 10.484 9.40659 10.5 11.0148C10.5067 12.4826 11.0348 13.9003 11.99 15.0148L16.5 21.4048L21.13 14.8848C22.0101 13.7862 22.4929 12.4224 22.5 11.0148C22.516 9.40659 21.8931 7.8578 20.7682 6.70847C19.6432 5.55914 18.1081 4.90323 16.5 4.88477Z" fill="#5B9F78"/>
<path d="M16.5 11.8848C17.6046 11.8848 18.5 10.9893 18.5 9.88477C18.5 8.7802 17.6046 7.88477 16.5 7.88477C15.3954 7.88477 14.5 8.7802 14.5 9.88477C14.5 10.9893 15.3954 11.8848 16.5 11.8848Z" fill="#5B9F78"/>
<path d="M28.5 12.8848H26.5V14.8848H28.5V28.8848H4.5V14.8848H6.5V12.8848H4.5C3.96957 12.8848 3.46086 13.0955 3.08579 13.4706C2.71071 13.8456 2.5 14.3543 2.5 14.8848V28.8848C2.5 29.4152 2.71071 29.9239 3.08579 30.299C3.46086 30.6741 3.96957 30.8848 4.5 30.8848H28.5C29.0304 30.8848 29.5391 30.6741 29.9142 30.299C30.2893 29.9239 30.5 29.4152 30.5 28.8848V14.8848C30.5 14.3543 30.2893 13.8456 29.9142 13.4706C29.5391 13.0955 29.0304 12.8848 28.5 12.8848Z" fill="#5B9F78"/>
</svg>
