<svg width="159" height="46" viewBox="0 0 159 46" fill="none" xmlns="http://www.w3.org/2000/svg">
<path d="M71.7031 10.3747C71.7031 10.4493 71.6871 10.508 71.6551 10.5507C71.6338 10.5827 71.5804 10.5987 71.4951 10.5987C71.3884 10.5987 71.2818 10.5987 71.1751 10.5987C71.0684 10.588 70.9618 10.5827 70.8551 10.5827C70.7378 10.5827 70.6044 10.6147 70.4551 10.6787C70.3058 10.7427 70.2311 10.8493 70.2311 10.9987V21.0947C70.2311 21.244 70.3058 21.3507 70.4551 21.4147C70.6044 21.4787 70.7378 21.5107 70.8551 21.5107C70.9724 21.5107 71.0844 21.5053 71.1911 21.4947C71.3084 21.484 71.4204 21.4787 71.5271 21.4787C71.6231 21.4787 71.6711 21.532 71.6711 21.6387C71.6711 21.6707 71.6711 21.7027 71.6711 21.7347C71.6711 21.756 71.6711 21.7827 71.6711 21.8147C71.6711 21.8893 71.6338 21.9267 71.5591 21.9267C71.1858 21.9267 70.8071 21.916 70.4231 21.8947C70.0498 21.8733 69.6711 21.8627 69.2871 21.8627C69.0738 21.8627 68.8551 21.868 68.6311 21.8787C68.4178 21.8893 68.2044 21.9 67.9911 21.9107C67.8524 21.9213 67.7138 21.932 67.5751 21.9427C67.4471 21.9533 67.3138 21.9587 67.1751 21.9587C67.1111 21.9587 67.0791 21.9053 67.0791 21.7987C67.0791 21.756 67.0844 21.6973 67.0951 21.6227C67.1058 21.5373 67.1378 21.4947 67.1911 21.4947C67.3084 21.4947 67.4311 21.5 67.5591 21.5107C67.6871 21.5107 67.8098 21.5107 67.9271 21.5107C68.0444 21.5107 68.1831 21.4787 68.3431 21.4147C68.5031 21.3507 68.5831 21.244 68.5831 21.0947V16.0227H62.1351V21.0947C62.1351 21.244 62.2098 21.3507 62.3591 21.4147C62.5084 21.4787 62.6418 21.5107 62.7591 21.5107C62.8764 21.5107 62.9884 21.5053 63.0951 21.4947C63.2124 21.484 63.3298 21.4787 63.4471 21.4787C63.5218 21.4787 63.5644 21.5053 63.5751 21.5587C63.5858 21.5693 63.5911 21.6013 63.5911 21.6547C63.5911 21.6973 63.5911 21.7293 63.5911 21.7507C63.5911 21.7827 63.5804 21.8307 63.5591 21.8947C63.5164 21.916 63.4844 21.9267 63.4631 21.9267C63.0898 21.9267 62.7164 21.916 62.3431 21.8947C61.9804 21.8733 61.6124 21.8627 61.2391 21.8627C61.0151 21.8627 60.7911 21.868 60.5671 21.8787C60.3538 21.8893 60.1404 21.9 59.9271 21.9107C59.7884 21.9213 59.6551 21.932 59.5271 21.9427C59.3991 21.9533 59.2658 21.9587 59.1271 21.9587C59.0524 21.9587 59.0258 21.932 59.0471 21.8787C59.0258 21.8147 59.0151 21.7773 59.0151 21.7667C59.0151 21.724 59.0204 21.6707 59.0311 21.6067C59.0418 21.532 59.0791 21.4947 59.1431 21.4947C59.2604 21.4947 59.3778 21.5 59.4951 21.5107C59.6231 21.5107 59.7458 21.5107 59.8631 21.5107C59.9911 21.5107 60.1298 21.4787 60.2791 21.4147C60.4391 21.3507 60.5191 21.244 60.5191 21.0947C60.5191 20.1773 60.5191 19.26 60.5191 18.3427C60.5298 17.4253 60.5351 16.5133 60.5351 15.6067C60.5351 14.8493 60.5298 14.0867 60.5191 13.3187C60.5191 12.5507 60.5191 11.788 60.5191 11.0307C60.5191 10.8813 60.4391 10.7747 60.2791 10.7107C60.1298 10.6467 59.9911 10.6147 59.8631 10.6147C59.7458 10.6147 59.6231 10.62 59.4951 10.6307C59.3778 10.6307 59.2604 10.6307 59.1431 10.6307C59.0684 10.6307 59.0258 10.588 59.0151 10.5027C59.0044 10.4173 58.9991 10.3533 58.9991 10.3107C58.9991 10.2147 59.0418 10.1667 59.1271 10.1667C59.2658 10.1667 59.3991 10.172 59.5271 10.1827C59.6551 10.1933 59.7884 10.204 59.9271 10.2147C60.1404 10.2253 60.3538 10.236 60.5671 10.2467C60.7911 10.2573 61.0151 10.2627 61.2391 10.2627C61.6124 10.2627 61.9858 10.252 62.3591 10.2307C62.7431 10.2093 63.1218 10.1987 63.4951 10.1987C63.5698 10.1987 63.6071 10.2307 63.6071 10.2947C63.6071 10.3587 63.6071 10.4173 63.6071 10.4707C63.6071 10.588 63.5538 10.6467 63.4471 10.6467C63.3298 10.6467 63.2124 10.6413 63.0951 10.6307C62.9884 10.62 62.8764 10.6147 62.7591 10.6147C62.6418 10.6147 62.5084 10.6467 62.3591 10.7107C62.2098 10.7747 62.1351 10.8813 62.1351 11.0307V15.4947H68.5831V11.1587C68.5831 10.9453 68.5244 10.8013 68.4071 10.7267C68.2898 10.652 68.1298 10.6147 67.9271 10.6147C67.8098 10.6147 67.6871 10.62 67.5591 10.6307C67.4311 10.6307 67.3084 10.6307 67.1911 10.6307C67.1271 10.6307 67.0898 10.5987 67.0791 10.5347C67.0791 10.46 67.0791 10.4013 67.0791 10.3587C67.0791 10.2307 67.1218 10.1667 67.2071 10.1667C67.4631 10.1667 67.7244 10.1773 67.9911 10.1987C68.2684 10.22 68.5404 10.2307 68.8071 10.2307H69.2871C69.6711 10.2307 70.0498 10.22 70.4231 10.1987C70.8071 10.1773 71.1858 10.1667 71.5591 10.1667C71.6124 10.1667 71.6498 10.188 71.6711 10.2307C71.6924 10.2733 71.7031 10.3213 71.7031 10.3747ZM79.5577 17.6867C79.5577 17.228 79.5204 16.7693 79.4457 16.3107C79.3817 15.8413 79.2537 15.4093 79.0617 15.0147C78.8804 14.62 78.6137 14.3053 78.2617 14.0707C77.9097 13.8253 77.4511 13.7027 76.8857 13.7027C76.3524 13.7027 75.9151 13.8307 75.5737 14.0867C75.2431 14.3427 74.9817 14.6733 74.7897 15.0787C74.6084 15.484 74.4804 15.9213 74.4057 16.3907C74.3417 16.86 74.3097 17.3027 74.3097 17.7187C74.3097 18.1773 74.3417 18.636 74.4057 19.0947C74.4804 19.5533 74.6137 19.9693 74.8057 20.3427C74.9977 20.7053 75.2697 20.9987 75.6217 21.2227C75.9844 21.4467 76.4484 21.5587 77.0137 21.5587C77.5684 21.5587 78.0111 21.4413 78.3417 21.2067C78.6831 20.972 78.9391 20.6627 79.1097 20.2787C79.2911 19.8947 79.4084 19.4787 79.4617 19.0307C79.5257 18.572 79.5577 18.124 79.5577 17.6867ZM81.2057 17.7347C81.2057 18.5347 81.0137 19.2547 80.6297 19.8947C80.2564 20.5347 79.7444 21.0413 79.0937 21.4147C78.4537 21.788 77.7337 21.9747 76.9337 21.9747C76.1551 21.9747 75.4511 21.788 74.8217 21.4147C74.1924 21.0307 73.6911 20.524 73.3177 19.8947C72.9444 19.2547 72.7577 18.5453 72.7577 17.7667C72.7577 16.9667 72.9391 16.2307 73.3017 15.5587C73.6644 14.876 74.1604 14.3267 74.7897 13.9107C75.4297 13.4947 76.1657 13.2867 76.9977 13.2867C77.8937 13.2867 78.6564 13.4787 79.2857 13.8627C79.9151 14.236 80.3897 14.7587 80.7097 15.4307C81.0404 16.092 81.2057 16.86 81.2057 17.7347ZM87.7676 21.1747C87.7676 21.2707 87.6929 21.3667 87.5436 21.4627C87.4049 21.5587 87.2343 21.644 87.0316 21.7187C86.8289 21.7933 86.6316 21.852 86.4396 21.8947C86.2583 21.9373 86.1249 21.9587 86.0396 21.9587C85.4849 21.9587 85.0529 21.8893 84.7436 21.7507C84.4449 21.612 84.2316 21.3827 84.1036 21.0627C83.9863 20.7427 83.9276 20.3107 83.9276 19.7667C83.9276 18.8813 83.9276 17.996 83.9276 17.1107C83.9383 16.2147 83.9489 15.324 83.9596 14.4387H82.8076C82.7329 14.4387 82.6689 14.46 82.6156 14.5027C82.5729 14.5347 82.5249 14.5507 82.4716 14.5507C82.4183 14.5507 82.3916 14.5133 82.3916 14.4387C82.3916 14.396 82.4183 14.3107 82.4716 14.1827C82.5356 14.0547 82.5783 13.9693 82.5996 13.9267C82.6316 13.9373 82.6796 13.9427 82.7436 13.9427H83.9916L84.0076 11.9107C84.2529 11.7507 84.4769 11.5747 84.6796 11.3827C84.8823 11.18 85.0849 10.9773 85.2876 10.7747C85.3089 10.7533 85.3303 10.7373 85.3516 10.7267C85.3729 10.7053 85.3943 10.6947 85.4156 10.6947C85.5116 10.6947 85.5596 10.732 85.5596 10.8067L85.4636 13.9267C85.8049 13.9267 86.1409 13.9213 86.4716 13.9107C86.8129 13.9 87.1489 13.8947 87.4796 13.8947C87.6183 13.8947 87.6876 13.9747 87.6876 14.1347C87.6876 14.3373 87.5969 14.4387 87.4156 14.4387H85.4636C85.4636 15.2493 85.4583 16.0653 85.4476 16.8867C85.4476 17.6973 85.4476 18.5133 85.4476 19.3347V20.5667C85.4476 20.8333 85.5596 21.02 85.7836 21.1267C86.0076 21.2227 86.2263 21.2707 86.4396 21.2707C86.7383 21.2707 87.0316 21.2227 87.3196 21.1267C87.3516 21.1053 87.3996 21.084 87.4636 21.0627C87.5276 21.0413 87.5756 21.0307 87.6076 21.0307C87.7143 21.0307 87.7676 21.0787 87.7676 21.1747ZM94.4247 16.2947C94.4141 15.8573 94.3767 15.4413 94.3127 15.0467C94.2487 14.6413 94.0941 14.3107 93.8487 14.0547C93.6034 13.788 93.2034 13.6547 92.6487 13.6547C92.1474 13.6547 91.7367 13.7933 91.4167 14.0707C91.1074 14.3373 90.8674 14.6787 90.6967 15.0947C90.5261 15.5 90.3981 15.916 90.3127 16.3427C90.5794 16.3533 90.8407 16.364 91.0967 16.3747C91.3527 16.3747 91.6087 16.3747 91.8647 16.3747C92.2914 16.3747 92.7181 16.3693 93.1447 16.3587C93.5714 16.3373 93.9981 16.316 94.4247 16.2947ZM96.2647 19.9587C96.2647 20.012 96.2541 20.044 96.2327 20.0547C96.2007 20.1613 96.1207 20.2893 95.9927 20.4387C95.8754 20.588 95.7421 20.732 95.5927 20.8707C95.4434 20.9987 95.3207 21.0947 95.2247 21.1587C94.8727 21.404 94.4727 21.6013 94.0247 21.7507C93.5874 21.9 93.1501 21.9747 92.7127 21.9747C92.3501 21.9747 91.9447 21.916 91.4967 21.7987C91.0594 21.6813 90.6861 21.5213 90.3767 21.3187C89.7794 20.924 89.3421 20.4067 89.0647 19.7667C88.7874 19.1267 88.6487 18.46 88.6487 17.7667C88.6487 16.9773 88.8034 16.2467 89.1127 15.5747C89.4221 14.9027 89.9181 14.3587 90.6007 13.9427C90.9101 13.7613 91.2567 13.612 91.6407 13.4947C92.0247 13.3667 92.3927 13.3027 92.7447 13.3027C93.3741 13.3027 93.9287 13.4307 94.4087 13.6867C94.8887 13.9427 95.2621 14.3053 95.5287 14.7747C95.8061 15.2333 95.9447 15.7827 95.9447 16.4227C95.9447 16.604 95.9021 16.7213 95.8167 16.7747C95.7421 16.828 95.6247 16.8547 95.4647 16.8547C95.2514 16.8547 95.0381 16.8493 94.8247 16.8387C94.6114 16.828 94.3981 16.8173 94.1847 16.8067C93.8861 16.7853 93.5874 16.7747 93.2887 16.7747C93.0007 16.7747 92.7074 16.7747 92.4087 16.7747C92.0461 16.7747 91.6834 16.7747 91.3207 16.7747C90.9581 16.7747 90.5954 16.7853 90.2327 16.8067C90.2221 16.9773 90.2114 17.1427 90.2007 17.3027C90.1901 17.4627 90.1847 17.628 90.1847 17.7987C90.1847 18.1933 90.2327 18.604 90.3287 19.0307C90.4247 19.4467 90.5794 19.836 90.7927 20.1987C91.0061 20.5507 91.2781 20.8387 91.6087 21.0627C91.9394 21.276 92.3394 21.3827 92.8087 21.3827C93.2887 21.3827 93.7474 21.308 94.1847 21.1587C94.6221 21.0093 95.0221 20.7693 95.3847 20.4387C95.4807 20.3427 95.5661 20.2413 95.6407 20.1347C95.7261 20.0173 95.8167 19.916 95.9127 19.8307C95.9661 19.7773 96.0247 19.7507 96.0887 19.7507C96.1421 19.7507 96.1847 19.772 96.2167 19.8147C96.2487 19.8573 96.2647 19.9053 96.2647 19.9587ZM101.655 21.7027C101.655 21.756 101.639 21.8093 101.607 21.8627C101.586 21.9053 101.543 21.9267 101.479 21.9267C101.149 21.9267 100.813 21.9213 100.471 21.9107C100.13 21.8893 99.7888 21.8787 99.4475 21.8787H98.8875C98.6635 21.8787 98.4395 21.8893 98.2155 21.9107C97.9915 21.9213 97.7675 21.9267 97.5435 21.9267C97.5008 21.9267 97.4688 21.9107 97.4475 21.8787C97.4368 21.836 97.4315 21.7987 97.4315 21.7667C97.4315 21.7347 97.4315 21.7027 97.4315 21.6707C97.4315 21.6387 97.4368 21.6067 97.4475 21.5747C97.4688 21.532 97.5275 21.5107 97.6235 21.5107C97.7301 21.5 97.8368 21.5 97.9435 21.5107C98.0608 21.5107 98.1355 21.5107 98.1675 21.5107C98.3168 21.5107 98.4501 21.4787 98.5675 21.4147C98.6848 21.34 98.7435 21.2173 98.7435 21.0467C98.7435 20.2253 98.7488 19.4093 98.7595 18.5987C98.7701 17.7773 98.7755 16.9613 98.7755 16.1507C98.7755 15.3187 98.7701 14.4867 98.7595 13.6547C98.7595 12.812 98.7595 11.9747 98.7595 11.1427C98.7595 11.068 98.7541 10.988 98.7435 10.9027C98.7328 10.8067 98.7008 10.732 98.6475 10.6787C98.6048 10.6253 98.5621 10.5987 98.5195 10.5987C98.4768 10.588 98.4235 10.5827 98.3595 10.5827C98.1675 10.5827 97.9755 10.6147 97.7835 10.6787C97.6021 10.7427 97.4208 10.7747 97.2395 10.7747C97.1221 10.7747 97.0635 10.7053 97.0635 10.5667C97.0635 10.4813 97.1275 10.4227 97.2555 10.3907C97.3941 10.3587 97.5008 10.3373 97.5755 10.3267C97.9488 10.2413 98.3541 10.1453 98.7915 10.0387C99.2288 9.93201 99.6235 9.80934 99.9755 9.67067C99.9968 9.67067 100.018 9.66534 100.039 9.65467C100.061 9.64401 100.077 9.63867 100.087 9.63867C100.151 9.63867 100.189 9.66001 100.199 9.70267C100.221 9.74534 100.231 9.79334 100.231 9.84667C100.231 10.1453 100.226 10.444 100.215 10.7427C100.215 11.0307 100.215 11.324 100.215 11.6227V16.1027C100.215 16.924 100.221 17.7507 100.231 18.5827C100.242 19.404 100.247 20.2253 100.247 21.0467C100.247 21.2173 100.317 21.34 100.455 21.4147C100.605 21.4787 100.749 21.5107 100.887 21.5107C101.005 21.5107 101.117 21.5053 101.223 21.4947C101.33 21.484 101.437 21.4787 101.543 21.4787C101.597 21.4787 101.629 21.5107 101.639 21.5747C101.65 21.628 101.655 21.6707 101.655 21.7027Z" fill="white"/>
<path d="M38.7819 5.82403C38.8827 5.83877 38.984 5.84953 39.0854 5.85637L39.0778 6.13559C39.076 6.20009 39.0766 6.26364 39.0794 6.32622C38.9758 6.17564 38.8962 6.04077 38.8381 5.93281C38.8162 5.89225 38.7976 5.85578 38.7819 5.82403Z" fill="#5B9F78" stroke="#219653" stroke-width="2.45"/>
<path d="M39.0772 24.7001C38.8976 25.1812 38.7403 25.717 38.6511 26.2774L38.6511 26.2774L38.6501 26.2838C38.6108 26.5398 38.5916 26.7977 38.5927 27.0562V28.5666V28.5675C38.5927 28.5946 38.5785 28.7604 38.2784 28.9777C36.6232 30.1749 32.8982 32.7701 29.9007 34.1723C29.9692 34.0212 30.1064 33.8373 30.3647 33.6471L30.3647 33.6472L30.3736 33.6405L34.8671 30.2689L35.239 29.9899L35.3321 29.5344L36.2239 25.1704L39.0772 24.7001ZM29.897 34.8318L29.8954 34.8263L29.897 34.8318L29.897 34.8318Z" fill="#5B9F78" stroke="#219653" stroke-width="2.45"/>
<path d="M18.1091 30.9352L18.1069 30.9435L18.1048 30.9518C17.9259 31.6601 17.9153 32.3881 18.0743 33.1006L18.0764 33.11L18.0786 33.1194C18.146 33.4004 18.2467 33.6715 18.3767 33.9298L19.7183 36.6489C19.5954 36.6011 19.4812 36.5478 19.3766 36.4903C19.1135 36.3456 18.9348 36.1872 18.8246 36.0454C18.8235 36.0438 18.8216 36.0409 18.8188 36.0367C18.8128 36.0274 18.805 36.0149 18.7929 35.9949L15.0076 29.6058L16.1644 25.5554L20.1519 26.4803C20.1877 26.6052 20.2183 26.7501 20.2328 26.9088C20.2768 27.391 20.1875 28.0875 19.4032 28.846C18.7857 29.4272 18.323 30.1352 18.1091 30.9352Z" fill="#5B9F78" stroke="#219653" stroke-width="2.45"/>
<mask id="path-5-inside-1_227_77" fill="white">
<path d="M48.6008 9.14719L53.9496 8.16376C53.9496 8.16376 53.7699 10.8618 49.8597 10.701L48.6008 9.14719Z"/>
</mask>
<path d="M48.6008 9.14719L53.9496 8.16376C53.9496 8.16376 53.7699 10.8618 49.8597 10.701L48.6008 9.14719Z" fill="#5B9F78"/>
<path d="M48.6008 9.14719L48.1578 6.73758L44.0999 7.48367L46.6972 10.6895L48.6008 9.14719ZM53.9496 8.16376L56.3942 8.32661L56.6035 5.18474L53.5066 5.75415L53.9496 8.16376ZM49.8597 10.701L47.9561 12.2433L48.6529 13.1035L49.759 13.1489L49.8597 10.701ZM49.0439 11.5568L54.3927 10.5734L53.5066 5.75415L48.1578 6.73758L49.0439 11.5568ZM53.9496 8.16376C51.505 8.0009 51.5052 7.99918 51.5053 7.99747C51.5053 7.99691 51.5054 7.99521 51.5055 7.99409C51.5057 7.99185 51.5058 7.98965 51.506 7.98747C51.5063 7.98312 51.5066 7.9789 51.5069 7.97481C51.5076 7.96661 51.5082 7.95891 51.5089 7.95168C51.5102 7.93724 51.5115 7.92463 51.5127 7.91373C51.5152 7.89203 51.5176 7.87668 51.5193 7.86673C51.5225 7.8476 51.5239 7.84568 51.5211 7.85468C51.5145 7.87605 51.4996 7.91079 51.4724 7.94422C51.4557 7.96462 51.3982 8.03267 51.2259 8.10268C51.0417 8.17754 50.6567 8.2817 49.9603 8.25307L49.759 13.1489C52.346 13.2553 54.1666 12.3936 55.2696 11.0411C55.7761 10.4201 56.0505 9.79042 56.1997 9.31094C56.2749 9.06952 56.3209 8.85807 56.3493 8.69202C56.3635 8.6086 56.3735 8.53545 56.3806 8.4743C56.3841 8.44369 56.3869 8.41595 56.3891 8.3913C56.3902 8.37897 56.3912 8.3674 56.392 8.35662C56.3925 8.35123 56.3928 8.34603 56.3932 8.34103C56.3934 8.33852 56.3936 8.33607 56.3937 8.33367C56.3938 8.33247 56.3939 8.3307 56.394 8.33011C56.3941 8.32835 56.3942 8.32661 53.9496 8.16376ZM51.7633 9.15871L50.5045 7.6049L46.6972 10.6895L47.9561 12.2433L51.7633 9.15871Z" fill="#219653" mask="url(#path-5-inside-1_227_77)"/>
<path d="M51.5665 5.93304C51.5084 6.04093 51.4289 6.17571 51.3253 6.32618C51.3279 6.2639 51.3284 6.20063 51.3266 6.13636L51.3204 5.90609C51.407 5.90471 51.4963 5.90064 51.5875 5.89345C51.5809 5.90617 51.5739 5.91937 51.5665 5.93304Z" fill="#5B9F78" stroke="#219653" stroke-width="2.45"/>
<path d="M42.7655 10.2073L41.3278 11.3794C41.3265 11.3808 41.3252 11.3824 41.3239 11.384C41.2997 11.4129 41.245 11.4841 41.1814 11.6069C41.0569 11.8471 40.8795 12.3203 40.8582 13.1184L40.858 13.1257C40.8477 13.4438 40.7797 13.7527 40.6624 14.0432C40.4328 14.6185 39.8927 15.6713 38.7627 16.5685C37.6116 17.4824 35.9354 18.1643 33.5718 18.1064L33.5344 18.1061C33.502 18.1058 33.4558 18.1052 33.3965 18.1039C33.2778 18.1014 33.1066 18.0965 32.8883 18.0869C32.4519 18.0676 31.8264 18.0293 31.056 17.9532C29.5173 17.8012 27.39 17.4973 25.0313 16.8885L25.0176 16.8849L25.0044 16.8812L25.0043 16.8812L25.0042 16.8811L25.0039 16.8811L25.0025 16.8807L24.9927 16.8779L24.9484 16.8658C24.908 16.8548 24.8463 16.8382 24.7649 16.8171C24.6021 16.7747 24.3606 16.7139 24.053 16.642C23.4372 16.4981 22.5595 16.3105 21.5201 16.1383C19.4283 15.7916 16.742 15.5172 14.2346 15.7543C12.6954 15.9091 11.2977 16.3644 10.2142 17.0278L10.2068 17.0324L10.2067 17.0324C9.43537 17.4971 8.37867 18.0981 7.28229 18.6093C7.18211 18.656 7.08056 18.7025 6.9779 18.7484L7.3376 18.7706L8.63586 18.8505L8.47948 20.1316C8.47897 20.1375 8.47786 20.1513 8.47674 20.1725C8.47438 20.2168 8.472 20.2927 8.47478 20.395C8.48035 20.6002 8.50655 20.9067 8.59279 21.2748C8.76335 22.0028 9.16989 22.9813 10.1457 23.918C10.5871 24.3345 10.9359 24.8406 11.127 25.4197C11.4102 26.2611 11.4298 27.1448 11.1808 27.9965C10.9332 28.8431 10.4378 29.6014 9.77649 30.2367L9.76951 30.2434L9.76948 30.2434C9.73879 30.2724 9.72273 30.2941 9.71526 30.3057C9.65753 31.4436 9.7488 34.087 11.4046 36.1221L11.406 36.1238C11.4104 36.1286 11.42 36.1388 11.4352 36.1535C11.4758 36.1929 11.5564 36.2648 11.6829 36.351C11.8456 36.462 12.0908 36.6013 12.4347 36.7259L11.5716 32.4187L11.5715 32.4184C11.4682 31.9022 11.5453 31.3856 11.7696 30.9261C11.9894 30.4759 12.332 30.1149 12.7201 29.8436C13.5776 29.2438 14.7298 28.3698 15.2933 27.7064C15.308 27.68 15.327 27.6446 15.3486 27.6015C15.4093 27.4803 15.4855 27.3087 15.5471 27.1107C15.6795 26.6851 15.6946 26.3047 15.5705 26.0219L14.853 24.3874L16.6362 24.3058C19.2491 24.1863 21.8938 24.1093 24.2906 24.3316C26.643 24.5497 28.8862 25.0657 30.672 26.2181C31.5374 26.6372 32.2898 27.3054 32.6418 28.2059L32.6419 28.2061C32.9706 29.0478 33.4944 30.3515 34.1046 31.7249L42.7655 10.2073ZM42.7655 10.2073L42.9296 10.0942C43.3582 9.79868 43.9141 9.55453 44.5627 9.40252C45.2075 9.25141 45.9042 9.20083 46.5929 9.25835C47.8257 9.3786 48.475 9.82733 48.8417 10.2443C49.2334 10.6898 49.3996 11.2121 49.4667 11.5844L42.7655 10.2073ZM15.2625 27.7598L15.2634 27.7583C15.2623 27.7601 15.262 27.7606 15.2625 27.7598ZM36.4411 27.9349L36.441 27.9349L36.4411 27.9349Z" fill="#5B9F78" stroke="#219653" stroke-width="2.45"/>
<path d="M21.4515 25.0616C21.761 25.0355 22.0749 25.0168 22.3915 25.0052C21.8641 24.9745 21.3756 24.964 20.9567 24.964C20.5364 24.9639 20.1909 24.9743 19.9528 24.9845C19.8338 24.9897 19.7419 24.9947 19.6812 24.9984C19.6509 25.0003 19.6283 25.0018 19.6141 25.0027L19.5991 25.0038L19.597 25.0039L19.5966 25.004L19.5964 25.004L19.5963 25.004L19.569 25.0061L19.5409 25.0069C19.3565 25.0125 19.1787 25.0164 19.0072 25.0188C19.6182 25.1071 20.424 25.1485 21.4515 25.0616ZM21.4515 25.0616L21.5547 26.2823L21.4515 25.0616Z" fill="#5B9F78" stroke="#219653" stroke-width="2.45"/>
<path d="M11.7828 20.6645L12.0939 20.8108C12.297 20.9066 12.4385 21.0498 12.4905 21.212C12.5424 21.3742 12.5009 21.5434 12.3743 21.6862L12.1603 21.9273C12.0877 22.009 11.9895 22.0794 11.8724 22.1335C11.7552 22.1877 11.622 22.2243 11.4817 22.241C11.3414 22.2576 11.1973 22.2539 11.0594 22.23C10.9215 22.2061 10.7929 22.1626 10.6825 22.1026L10.4059 21.9527C10.2419 21.8636 10.125 21.7417 10.0724 21.605C10.0197 21.4683 10.0342 21.3239 10.1135 21.1931C10.1852 21.0752 10.2715 20.9615 10.3715 20.8532C10.4429 20.7769 10.5368 20.7112 10.6477 20.66C10.7585 20.6088 10.8839 20.5733 11.0161 20.5556C11.1482 20.5379 11.2845 20.5385 11.4163 20.5572C11.5482 20.5759 11.6729 20.6124 11.7828 20.6645Z" fill="#5B9F78"/>
<path d="M13.6219 16.9236L14.3361 16.4956C14.401 16.4567 14.4793 16.429 14.5641 16.4151C14.6488 16.4012 14.7374 16.4014 14.822 16.4158C14.9066 16.4302 14.9846 16.4582 15.0491 16.4975C15.1135 16.5368 15.1625 16.586 15.1915 16.6409L15.5597 17.3344C15.6024 17.4153 15.5997 17.5038 15.5521 17.5835C15.5044 17.6632 15.415 17.7287 15.3004 17.7677L14.6599 17.9867C14.5671 18.019 14.462 18.0322 14.3579 18.0244C14.2538 18.0166 14.1557 17.9882 14.076 17.9429C13.7746 17.7675 13.5602 17.5351 13.4614 17.2766C13.4371 17.2136 13.4392 17.1474 13.4675 17.0851C13.4958 17.0229 13.5492 16.967 13.6219 16.9236Z" fill="#5B9F78"/>
<path d="M14.6535 20.1574C14.7713 19.9598 14.9429 19.7784 15.1597 19.6225C15.2689 19.5457 15.4102 19.4926 15.5652 19.47C15.7202 19.4474 15.8818 19.4563 16.029 19.4957L16.5842 19.6455C16.6869 19.6732 16.7797 19.7151 16.8566 19.7684C16.9334 19.8217 16.9925 19.8852 17.03 19.9547C17.0676 20.0243 17.0826 20.0983 17.0743 20.172C17.066 20.2457 17.0344 20.3174 16.9817 20.3824L16.5871 20.8687C16.49 20.9879 16.3276 21.0775 16.1338 21.1189C15.9399 21.1602 15.7297 21.15 15.5469 21.0904C15.1929 20.988 14.894 20.8162 14.69 20.5978C14.6353 20.5308 14.6037 20.4565 14.5974 20.3803C14.5911 20.3042 14.6102 20.228 14.6535 20.1574Z" fill="#5B9F78"/>
<path d="M18.7288 17.4547C18.999 17.2285 19.314 17.028 19.6652 16.8585C19.8285 16.7859 20.0233 16.7518 20.219 16.7614C20.4146 16.771 20.5999 16.8239 20.7454 16.9117L21.1617 17.1601C21.3153 17.2516 21.4163 17.376 21.4474 17.5118C21.4785 17.6476 21.4377 17.7864 21.3321 17.9044L20.9757 18.3027C20.8841 18.406 20.7472 18.4882 20.5834 18.5381C20.4197 18.5881 20.237 18.6035 20.0598 18.5822C19.7085 18.5395 19.3669 18.4669 19.0434 18.3662C18.9207 18.3281 18.8128 18.2719 18.7276 18.2018C18.6425 18.1317 18.5825 18.0496 18.5522 17.9617C18.5219 17.8738 18.522 17.7824 18.5526 17.6945C18.5832 17.6067 18.6435 17.5246 18.7288 17.4547Z" fill="#5B9F78"/>
<path d="M25.0386 19.0065L24.3832 18.9082C24.1873 18.879 24.016 18.8002 23.9055 18.6884C23.795 18.5766 23.7539 18.4405 23.7908 18.3089C23.8362 18.1176 23.9397 17.9345 24.0951 17.7708C24.2504 17.6072 24.4543 17.4664 24.6942 17.3572C24.7926 17.3148 24.9043 17.288 25.0207 17.2789C25.137 17.2699 25.255 17.2787 25.3654 17.3049L26.1767 17.4921C26.298 17.5201 26.4071 17.5678 26.494 17.6309C26.5809 17.6939 26.6429 17.7704 26.6745 17.8534C26.7062 17.9364 26.7064 18.0233 26.6752 18.1064C26.644 18.1895 26.5823 18.2661 26.4957 18.3293L25.7814 18.8511C25.6892 18.9184 25.5718 18.9682 25.4414 18.9955C25.3109 19.0228 25.172 19.0266 25.0386 19.0065Z" fill="#5B9F78"/>
<path d="M20.8487 20.6779L21.1106 20.8123C21.2418 20.8797 21.343 20.9696 21.4034 21.0724C21.4638 21.1753 21.481 21.2871 21.4533 21.396L21.3442 21.824C21.3088 21.9678 21.1966 22.0983 21.0283 22.1914C20.86 22.2845 20.6469 22.3338 20.4283 22.3304C19.9367 22.3315 19.4636 22.2057 19.1082 21.9792C18.9467 21.8689 18.8541 21.7218 18.8493 21.5677C18.8445 21.4136 18.9279 21.264 19.0825 21.1494L19.6118 20.7545C19.7653 20.6399 19.9782 20.5683 20.2077 20.554C20.4372 20.5398 20.6662 20.5841 20.8487 20.6779Z" fill="#5B9F78"/>
<path d="M24.0836 20.7221C24.2666 20.6225 24.4589 20.5307 24.6593 20.4474C24.7813 20.3972 24.9172 20.3637 25.059 20.3492C25.2007 20.3346 25.3454 20.3392 25.4844 20.3626C25.6234 20.386 25.754 20.4278 25.8683 20.4856C25.9827 20.5433 26.0784 20.6158 26.15 20.6987L26.2248 20.7852C26.3479 20.9277 26.3936 21.094 26.3542 21.2563C26.3148 21.4186 26.1927 21.5669 26.0084 21.6761L25.685 21.8677C25.5364 21.9561 25.3537 22.015 25.1576 22.0378C24.9614 22.0606 24.7595 22.0465 24.5748 21.9969C24.4775 21.9706 24.3749 21.9402 24.271 21.9047C24.1139 21.8505 23.9795 21.7712 23.8798 21.6739C23.78 21.5766 23.7181 21.4643 23.6995 21.347C23.6809 21.2298 23.7063 21.1113 23.7734 21.0022C23.8404 20.8932 23.947 20.7969 24.0836 20.7221Z" fill="#5B9F78"/>
<path d="M29.4988 18.5019C29.5538 18.4614 29.6146 18.4196 29.6812 18.3762C29.8315 18.2789 30.0179 18.2098 30.2213 18.1761C30.4247 18.1424 30.6379 18.1452 30.8391 18.1842C31.1164 18.2379 31.3547 18.3572 31.5096 18.5197C31.6644 18.6823 31.725 18.8769 31.6801 19.0671L31.6474 19.2059C31.618 19.3348 31.5411 19.4568 31.4236 19.561C31.3062 19.6652 31.1518 19.7484 30.9744 19.8031C30.7969 19.8578 30.6019 19.8823 30.4068 19.8744C30.2117 19.8666 30.0225 19.8265 29.8562 19.758C29.7616 19.7177 29.6716 19.6728 29.587 19.6237C29.4695 19.5544 29.3739 19.4702 29.3058 19.376C29.2376 19.2819 29.1983 19.1796 29.1901 19.0751C29.1819 18.9707 29.205 18.8662 29.258 18.7678C29.311 18.6694 29.3929 18.579 29.4988 18.5019Z" fill="#5B9F78"/>
<path d="M33.8461 20.1306L34.3314 19.8987C34.5183 19.8095 34.7433 19.7629 34.9731 19.7657C35.2028 19.7686 35.4251 19.8207 35.607 19.9144C35.8518 20.0373 36.0729 20.18 36.2653 20.3391C36.4064 20.4613 36.484 20.6108 36.4862 20.7651C36.4884 20.9193 36.4152 21.0699 36.2776 21.1939C36.1136 21.3494 35.9051 21.4818 35.664 21.5833C35.5196 21.639 35.3571 21.6706 35.1904 21.6752C35.0237 21.6799 34.8578 21.6575 34.7069 21.61C34.4075 21.519 34.12 21.4116 33.8473 21.2887C33.7083 21.2233 33.5949 21.1365 33.5166 21.0358C33.4383 20.9351 33.3973 20.8233 33.3972 20.7099C33.3971 20.5964 33.4378 20.4846 33.5159 20.3838C33.594 20.283 33.7072 20.1961 33.8461 20.1306Z" fill="#5B9F78"/>
<path d="M29.394 22.241C29.5371 22.1693 29.6888 22.1056 29.8475 22.0506C30.0224 21.9904 30.2204 21.9667 30.4158 21.9825C30.8686 22.0163 31.312 22.0928 31.7327 22.2095C31.9772 22.2783 32.1708 22.409 32.2711 22.5728C32.3714 22.7367 32.3701 22.9203 32.2676 23.0836C32.1262 23.3043 31.9552 23.5159 31.7565 23.7161C31.6819 23.7915 31.5852 23.856 31.4722 23.9058C31.3592 23.9557 31.2322 23.9897 31.099 24.006C30.9657 24.0223 30.8289 24.0204 30.6967 24.0004C30.5646 23.9805 30.4399 23.943 30.33 23.8901C29.9144 23.6867 29.5413 23.4473 29.2205 23.1782C29.1381 23.1095 29.0771 23.0305 29.0411 22.9458C29.0051 22.8611 28.9949 22.7725 29.0111 22.6852C29.0273 22.5979 29.0695 22.5136 29.1353 22.4373C29.201 22.361 29.289 22.2942 29.394 22.241Z" fill="#5B9F78"/>
<path d="M46.1101 11.6938C46.0758 11.6937 46.0416 11.6914 46.0079 11.687L45.3598 11.6007C45.2929 11.592 45.2292 11.5745 45.1725 11.5493C45.1157 11.524 45.0669 11.4916 45.029 11.4538C44.9911 11.416 44.9647 11.3736 44.9514 11.329C44.9381 11.2844 44.9381 11.2384 44.9514 11.1938C44.9648 11.1492 44.9912 11.1068 45.0292 11.069C45.0671 11.0313 45.1159 10.9988 45.1727 10.9736C45.2295 10.9484 45.2931 10.931 45.3601 10.9222C45.427 10.9135 45.4959 10.9136 45.5627 10.9226L46.2108 11.0088C46.3371 11.0255 46.4497 11.0729 46.5264 11.1418C46.6032 11.2108 46.6388 11.2963 46.6262 11.3818C46.6137 11.4672 46.5538 11.5465 46.4584 11.6042C46.363 11.6618 46.2388 11.6938 46.1101 11.6938Z" fill="#5B9F78"/>
<path d="M48.1737 11.466C48.0646 11.4661 47.9584 11.4432 47.8699 11.4007C47.7815 11.3581 47.7155 11.2981 47.6811 11.2291C47.6468 11.1601 47.646 11.0856 47.6788 11.0163C47.7116 10.9469 47.7763 10.8863 47.8638 10.8429L48.3942 10.5799C48.4488 10.5524 48.511 10.5324 48.5772 10.521C48.6435 10.5096 48.7124 10.5071 48.7801 10.5135C48.8478 10.52 48.913 10.5353 48.9717 10.5587C49.0305 10.582 49.0818 10.6128 49.1226 10.6494C49.1634 10.686 49.193 10.7277 49.2096 10.7719C49.2262 10.8162 49.2295 10.8622 49.2193 10.9073C49.2091 10.9524 49.1857 10.9957 49.1503 11.0347C49.1149 11.0737 49.0683 11.1077 49.0131 11.1347L48.4825 11.3978C48.3933 11.4422 48.285 11.4661 48.1737 11.466Z" fill="#5B9F78"/>
<path d="M7.26137 19.9932C7.45835 19.3067 7.83061 18.6479 8.36192 18.0454C8.39329 18.0115 8.40563 17.9713 8.39674 17.9319C8.38785 17.8925 8.35831 17.8565 8.31337 17.8302C8.26843 17.804 8.21099 17.7892 8.15125 17.7885C8.09151 17.7878 8.03334 17.8013 7.98706 17.8265C7.17219 18.2644 6.24843 18.963 6.0979 19.9198C6.48025 19.9738 6.87061 19.9984 7.26137 19.9932Z" fill="#5B9F78"/>
<path d="M48.1433 13.1292C48.3978 13.0756 48.6616 13.044 48.9281 13.0354C49.1799 13.0279 49.4262 13.0861 49.6149 13.1975C49.8036 13.3089 49.9198 13.4649 49.9392 13.6325C49.9431 13.6684 49.9454 13.705 49.9454 13.7422C49.9431 13.8692 49.8941 13.9939 49.8028 14.1053C49.7116 14.2168 49.5808 14.3116 49.4218 14.3815C49.2629 14.4515 49.0807 14.4944 48.8911 14.5065C48.7016 14.5187 48.5104 14.4996 48.3345 14.4511C48.1288 14.3941 47.9393 14.314 47.7742 14.2144C47.6513 14.1374 47.5608 14.0403 47.5115 13.9328C47.4622 13.8253 47.4559 13.711 47.4932 13.6014C47.5305 13.4917 47.6101 13.3905 47.7242 13.3077C47.8382 13.2249 47.9827 13.1633 48.1433 13.1292Z" fill="#5B9F78"/>
<path d="M44.0653 15.383C44.2834 16.2515 44.9667 17.0378 45.9884 17.5958C46.1477 17.0944 46.2728 16.5816 46.3603 16.0621C45.7036 15.8328 45.0951 15.5466 44.5508 15.211C44.5069 15.1828 44.4507 15.1646 44.3903 15.1589C44.3299 15.1533 44.2684 15.1605 44.2145 15.1796C44.1607 15.1987 44.1173 15.2286 44.0905 15.2651C44.0637 15.3017 44.0549 15.3429 44.0653 15.383Z" fill="#5B9F78"/>
<path d="M53.4032 36.4405C53.4032 35.8306 53.3336 35.21 53.1945 34.5787C53.0661 33.9367 52.8468 33.3429 52.5365 32.7972C52.2369 32.2515 51.8356 31.8128 51.3327 31.4811C50.8298 31.1494 50.2146 30.9835 49.487 30.9835C48.7808 30.9835 48.1762 31.1601 47.6733 31.5132C47.1704 31.8663 46.7585 32.3264 46.4375 32.8935C46.1165 33.4499 45.8811 34.0544 45.7313 34.7071C45.5815 35.3491 45.5066 35.9644 45.5066 36.5529C45.5066 37.1628 45.5761 37.7834 45.7152 38.4147C45.865 39.046 46.0951 39.6291 46.4054 40.1641C46.7264 40.6884 47.1383 41.1111 47.6412 41.4321C48.1548 41.7531 48.7701 41.9136 49.487 41.9136C50.2146 41.9136 50.8298 41.7477 51.3327 41.416C51.8356 41.0736 52.2369 40.6349 52.5365 40.0999C52.8468 39.5542 53.0661 38.9604 53.1945 38.3184C53.3336 37.6764 53.4032 37.0504 53.4032 36.4405ZM55.6823 36.4084C55.6823 37.7138 55.4362 38.832 54.944 39.7629C54.4625 40.6831 53.7563 41.3893 52.8254 41.8815C51.9052 42.363 50.7924 42.6037 49.487 42.6037C48.2244 42.6037 47.133 42.363 46.2128 41.8815C45.3033 41.4 44.6024 40.7098 44.1102 39.811C43.618 38.9015 43.3719 37.8155 43.3719 36.5529C43.3719 35.6541 43.5164 34.8248 43.8053 34.0651C44.1049 33.3054 44.5222 32.6474 45.0572 32.091C45.6029 31.5239 46.2502 31.0905 46.9992 30.7909C47.7482 30.4806 48.5775 30.3255 49.487 30.3255C50.7603 30.3255 51.857 30.5662 52.7772 31.0477C53.7081 31.5292 54.425 32.2247 54.9279 33.1342C55.4308 34.033 55.6823 35.1244 55.6823 36.4084ZM67.5914 36.922C67.5914 36.7508 67.5914 36.4673 67.5914 36.0714C67.5914 35.6648 67.5914 35.2154 67.5914 34.7232C67.5914 34.231 67.586 33.7495 67.5753 33.2787C67.5646 32.7972 67.5486 32.3959 67.5272 32.0749C67.5165 31.7432 67.5004 31.5506 67.479 31.4971C67.4469 31.4329 67.4095 31.3848 67.3667 31.3527C67.3239 31.3099 67.2597 31.2885 67.1741 31.2885H64.3011C64.1727 32.4441 64.0443 33.6104 63.9159 34.7874C63.7982 35.9537 63.6324 37.1146 63.4184 38.2702C63.2151 39.4258 62.9155 40.56 62.5196 41.6728H64.8308C65.2802 41.6728 65.7296 41.6728 66.179 41.6728C66.6391 41.6728 67.0938 41.6675 67.5432 41.6568C67.5646 40.865 67.5753 40.0732 67.5753 39.2814C67.586 38.4896 67.5914 37.7031 67.5914 36.922ZM71.7162 43.2297C71.7162 43.3688 71.7162 43.5239 71.7162 43.6951C71.7162 43.8663 71.6841 44.0161 71.6199 44.1445C71.5557 44.2729 71.422 44.3371 71.2187 44.3371C70.994 44.3371 70.8121 44.2462 70.673 44.0643C70.5339 43.8824 70.4055 43.6737 70.2878 43.4383C70.1701 43.2136 70.031 43.0371 69.8705 42.9087C69.6458 42.7268 69.3355 42.593 68.9396 42.5074C68.5544 42.4111 68.2227 42.363 67.9445 42.363H63.2739C62.9422 42.363 62.5624 42.3737 62.1344 42.3951C61.7171 42.4165 61.3158 42.4807 60.9306 42.5877C60.5454 42.7054 60.2351 42.9033 59.9997 43.1815C59.882 43.3206 59.7804 43.4651 59.6948 43.6149C59.6199 43.7754 59.5236 43.9091 59.4059 44.0161C59.2882 44.1231 59.1116 44.1766 58.8762 44.1766C58.6943 44.1766 58.6034 44.0964 58.6034 43.9359C58.6034 43.647 58.6248 43.326 58.6676 42.9729C58.7104 42.6305 58.7853 42.3255 58.8923 42.058C58.9565 41.8761 59.0421 41.7531 59.1491 41.6889C59.2561 41.6247 59.4005 41.5926 59.5824 41.5926C59.8927 41.5926 60.1977 41.5123 60.4973 41.3518C60.7969 41.1806 61.0002 40.9452 61.1072 40.6456C61.6208 39.2653 61.9953 37.7941 62.2307 36.2319C62.4768 34.6697 62.5998 33.1556 62.5998 31.6897C62.5998 31.5506 62.5784 31.449 62.5356 31.3848C62.4928 31.3206 62.3965 31.2885 62.2467 31.2885C62.0648 31.2885 61.8776 31.2992 61.685 31.3206C61.5031 31.3313 61.3158 31.3366 61.1232 31.3366C60.9199 31.3366 60.8183 31.235 60.8183 31.0317C60.8183 30.807 60.8504 30.6572 60.9146 30.5823C60.9788 30.4967 61.1286 30.4539 61.364 30.4539C61.6529 30.4539 61.9418 30.4646 62.2307 30.486C62.5196 30.5074 62.8085 30.5181 63.0974 30.5181H65.7777C66.6016 30.5181 67.4202 30.5074 68.2334 30.486C69.0573 30.4539 69.8758 30.4378 70.689 30.4378C70.8067 30.4378 70.8816 30.4753 70.9137 30.5502C70.9458 30.6144 70.9619 30.6946 70.9619 30.7909C70.9619 30.9942 70.9191 31.1333 70.8335 31.2082C70.7479 31.2724 70.6034 31.3045 70.4001 31.3045C70.3252 31.3045 70.245 31.2992 70.1594 31.2885C70.0738 31.2778 69.9882 31.2724 69.9026 31.2724C69.8598 31.2724 69.817 31.2778 69.7742 31.2885C69.7421 31.2885 69.71 31.3045 69.6779 31.3366C69.6565 31.3687 69.6351 31.4811 69.6137 31.6737C69.603 31.8556 69.5923 32.0482 69.5816 32.2515C69.5816 32.4441 69.5816 32.5725 69.5816 32.6367C69.5495 34.7339 69.5334 36.8364 69.5334 38.9443C69.5334 39.3937 69.5334 39.8431 69.5334 40.2925C69.5441 40.7312 69.5548 41.1753 69.5655 41.6247C69.8116 41.6247 70.0524 41.6193 70.2878 41.6086C70.5339 41.5979 70.78 41.5926 71.0261 41.5926C71.0903 41.5926 71.1598 41.5979 71.2347 41.6086C71.3096 41.6086 71.3738 41.6193 71.4273 41.6407C71.5129 41.6835 71.5664 41.7424 71.5878 41.8173C71.6199 41.8815 71.6413 41.9564 71.652 42.042C71.6841 42.2453 71.7002 42.4432 71.7002 42.6358C71.7109 42.8391 71.7162 43.0371 71.7162 43.2297ZM88.3761 42.1543C88.3761 42.3148 88.3173 42.4218 88.1996 42.4753C88.0819 42.5288 87.9588 42.5556 87.8304 42.5556C87.6592 42.5556 87.488 42.5556 87.3168 42.5556C87.1456 42.5449 86.9691 42.5395 86.7872 42.5395C86.295 42.5395 85.8028 42.5449 85.3106 42.5556C84.8291 42.5663 84.3422 42.5716 83.85 42.5716C83.7323 42.5716 83.62 42.5556 83.513 42.5235C83.406 42.4914 83.3525 42.3951 83.3525 42.2346C83.3525 42.0099 83.4327 41.8975 83.5932 41.8975C83.7644 41.8868 83.9249 41.8815 84.0747 41.8815C84.3208 41.8815 84.492 41.8173 84.5883 41.6889C84.6953 41.5605 84.7595 41.4053 84.7809 41.2234C84.8023 41.0308 84.813 40.8489 84.813 40.6777L84.797 34.0009L78.393 40.4691V40.9345C78.393 41.1592 78.4198 41.3732 78.4733 41.5765C78.5268 41.7691 78.698 41.8654 78.9869 41.8654C79.0832 41.8654 79.1741 41.8654 79.2597 41.8654C79.356 41.8547 79.4523 41.8494 79.5486 41.8494C79.6449 41.8494 79.7519 41.8868 79.8696 41.9617C79.9873 42.0259 80.0462 42.1115 80.0462 42.2185C80.0462 42.3897 79.998 42.4967 79.9017 42.5395C79.8054 42.5716 79.6824 42.5877 79.5326 42.5877C79.2009 42.5877 78.8638 42.577 78.5214 42.5556C78.179 42.5449 77.8366 42.5395 77.4942 42.5395C77.1411 42.5395 76.788 42.5449 76.4349 42.5556C76.0925 42.577 75.7448 42.5877 75.3917 42.5877C75.2847 42.5877 75.1723 42.5502 75.0546 42.4753C74.9369 42.4004 74.8781 42.3041 74.8781 42.1864C74.8781 42.1222 74.9316 42.058 75.0386 41.9938C75.1456 41.9296 75.2258 41.8975 75.2793 41.8975C75.7608 41.8975 76.0711 41.8119 76.2102 41.6407C76.36 41.4588 76.4349 41.1378 76.4349 40.6777C76.4349 39.276 76.4296 37.8743 76.4189 36.4726C76.4189 35.0709 76.4189 33.6692 76.4189 32.2675C76.4189 32.1177 76.3975 31.9626 76.3547 31.8021C76.3226 31.6309 76.253 31.4864 76.146 31.3687C76.0497 31.251 75.9106 31.1922 75.7287 31.1922C75.6431 31.1922 75.5575 31.1975 75.4719 31.2082C75.3863 31.2189 75.3007 31.2243 75.2151 31.2243C75.1188 31.2243 75.0172 31.1975 74.9102 31.144C74.8032 31.0798 74.7497 30.9942 74.7497 30.8872C74.7497 30.6946 74.8085 30.5769 74.9262 30.5341C75.0439 30.4913 75.1777 30.4699 75.3275 30.4699C75.6699 30.4699 76.0016 30.4806 76.3226 30.502C76.6543 30.5234 76.986 30.5341 77.3177 30.5341C77.6066 30.5341 77.8955 30.5288 78.1844 30.5181C78.484 30.5074 78.7782 30.486 79.0671 30.4539C79.1206 30.4539 79.1688 30.4539 79.2116 30.4539C79.2544 30.4432 79.2972 30.4378 79.34 30.4378C79.447 30.4378 79.554 30.4646 79.661 30.5181C79.7787 30.5716 79.8375 30.6625 79.8375 30.7909C79.8375 31.0156 79.7519 31.1333 79.5807 31.144C79.4202 31.144 79.2651 31.144 79.1153 31.144C78.8799 31.144 78.7087 31.2029 78.6017 31.3206C78.5054 31.4383 78.4412 31.5881 78.4091 31.77C78.3877 31.9412 78.377 32.1177 78.377 32.2996L78.393 39.1851L84.813 32.3799V32.091C84.813 31.877 84.7863 31.6737 84.7328 31.4811C84.6793 31.2885 84.5134 31.1922 84.2352 31.1922C84.1389 31.1922 84.0426 31.1975 83.9463 31.2082C83.8607 31.2189 83.7698 31.2243 83.6735 31.2243C83.5772 31.2243 83.4755 31.1975 83.3685 31.144C83.2615 31.0798 83.208 30.9942 83.208 30.8872C83.208 30.7053 83.2508 30.593 83.3364 30.5502C83.4327 30.4967 83.5558 30.4699 83.7056 30.4699C84.048 30.4699 84.385 30.4806 84.7167 30.502C85.0484 30.5234 85.3801 30.5341 85.7118 30.5341C86.0114 30.5341 86.3057 30.5288 86.5946 30.5181C86.8942 30.4967 87.1938 30.4753 87.4934 30.4539C87.5469 30.4539 87.595 30.4539 87.6378 30.4539C87.6913 30.4432 87.7395 30.4378 87.7823 30.4378C87.8893 30.4378 87.9963 30.4646 88.1033 30.5181C88.221 30.5716 88.2798 30.6625 88.2798 30.7909C88.2798 31.0049 88.1996 31.1173 88.0391 31.128C87.8786 31.1387 87.7234 31.144 87.5736 31.144C87.3275 31.144 87.1456 31.2082 87.0279 31.3366C86.9209 31.4543 86.8514 31.6095 86.8193 31.8021C86.7872 31.984 86.7711 32.1712 86.7711 32.3638C86.7711 33.7869 86.7711 35.2154 86.7711 36.6492C86.7818 38.0723 86.7872 39.5007 86.7872 40.9345C86.7872 41.1485 86.8139 41.3518 86.8674 41.5444C86.9316 41.737 87.0975 41.8333 87.365 41.8333C87.4613 41.8333 87.5522 41.8333 87.6378 41.8333C87.7341 41.8226 87.8304 41.8173 87.9267 41.8173C88.0123 41.8173 88.1086 41.8494 88.2156 41.9136C88.3226 41.9671 88.3761 42.0473 88.3761 42.1543ZM104.458 42.1383C104.458 42.3309 104.389 42.4432 104.25 42.4753C104.11 42.5074 103.966 42.5235 103.816 42.5235C103.506 42.5235 103.196 42.5181 102.885 42.5074C102.575 42.4967 102.265 42.4914 101.954 42.4914C101.623 42.4914 101.296 42.4967 100.975 42.5074C100.654 42.5074 100.328 42.5074 99.9963 42.5074C99.8893 42.5074 99.793 42.4914 99.7074 42.4593C99.6218 42.4165 99.579 42.3255 99.579 42.1864C99.579 41.9724 99.6539 41.8654 99.8037 41.8654C99.9535 41.8547 100.103 41.8494 100.253 41.8494C100.499 41.8494 100.676 41.7905 100.783 41.6728C100.9 41.5444 100.975 41.3893 101.007 41.2074C101.04 41.0148 101.056 40.8222 101.056 40.6296L101.04 36.7615H94.8443V41.0148C94.8443 41.2181 94.8764 41.4107 94.9406 41.5926C95.0048 41.7638 95.1599 41.8494 95.406 41.8494C95.4916 41.8494 95.5826 41.8494 95.6789 41.8494C95.7752 41.8387 95.8661 41.8333 95.9517 41.8333C96.0373 41.8333 96.1336 41.8601 96.2406 41.9136C96.3476 41.9671 96.4011 42.0473 96.4011 42.1543C96.4011 42.3041 96.3637 42.4058 96.2888 42.4593C96.2139 42.5128 96.1069 42.5395 95.9678 42.5395C95.6361 42.5395 95.3044 42.5342 94.9727 42.5235C94.641 42.5021 94.3039 42.4914 93.9615 42.4914C93.6084 42.4914 93.2553 42.5021 92.9022 42.5235C92.5491 42.5449 92.196 42.5556 91.8429 42.5556C91.7359 42.5556 91.6396 42.5395 91.554 42.5074C91.4684 42.4646 91.4256 42.3737 91.4256 42.2346C91.4256 42.1704 91.4738 42.0955 91.5701 42.0099C91.6664 41.9243 91.7466 41.8815 91.8108 41.8815C92.2816 41.8815 92.5812 41.7959 92.7096 41.6247C92.8487 41.4428 92.9183 41.1325 92.9183 40.6938C92.9183 39.2921 92.9129 37.8957 92.9022 36.5047C92.9022 35.103 92.9022 33.7067 92.9022 32.3157C92.9022 32.1873 92.8862 32.0375 92.8541 31.8663C92.8327 31.6951 92.7792 31.5453 92.6936 31.4169C92.6187 31.2885 92.4956 31.2243 92.3244 31.2243C92.2495 31.2243 92.1693 31.2296 92.0837 31.2403C91.9981 31.251 91.9125 31.2564 91.8269 31.2564C91.7413 31.2564 91.6396 31.2296 91.5219 31.1761C91.4149 31.1226 91.3614 31.0424 91.3614 30.9354C91.3614 30.7535 91.4096 30.6411 91.5059 30.5983C91.6129 30.5448 91.7466 30.5181 91.9071 30.5181C92.2067 30.5181 92.5063 30.5288 92.8059 30.5502C93.1162 30.5609 93.4212 30.5662 93.7208 30.5662C94.0204 30.5662 94.3146 30.5609 94.6035 30.5502C94.8924 30.5395 95.1867 30.5181 95.4863 30.486C95.5398 30.486 95.5879 30.486 95.6307 30.486C95.6735 30.4753 95.7163 30.4699 95.7591 30.4699C95.8554 30.4699 95.9571 30.4967 96.0641 30.5502C96.1818 30.6037 96.2406 30.6893 96.2406 30.807C96.2406 31.021 96.1657 31.1333 96.0159 31.144C95.8661 31.1547 95.7163 31.1601 95.5665 31.1601C95.2776 31.1601 95.0904 31.235 95.0048 31.3848C94.9299 31.5239 94.8817 31.7165 94.8603 31.9626C94.8389 32.1124 94.8229 32.2675 94.8122 32.428C94.8122 32.5778 94.8122 32.733 94.8122 32.8935C94.8122 33.3964 94.8175 33.9046 94.8282 34.4182C94.8389 34.9211 94.8443 35.424 94.8443 35.9269H101.04C101.04 35.2956 101.04 34.6643 101.04 34.033C101.05 33.4017 101.056 32.7758 101.056 32.1552C101.056 31.9412 101.029 31.7379 100.975 31.5453C100.933 31.3527 100.772 31.2564 100.494 31.2564C100.408 31.2564 100.317 31.2617 100.221 31.2724C100.125 31.2724 100.034 31.2724 99.9482 31.2724C99.8519 31.2724 99.7502 31.2457 99.6432 31.1922C99.5362 31.1387 99.4827 31.0584 99.4827 30.9514C99.4827 30.7802 99.5255 30.6732 99.6111 30.6304C99.7074 30.5769 99.8251 30.5502 99.9642 30.5502C100.435 30.5502 100.9 30.5555 101.361 30.5662C101.831 30.5662 102.297 30.5662 102.757 30.5662C102.95 30.5662 103.142 30.5609 103.335 30.5502C103.538 30.5288 103.736 30.5181 103.929 30.5181C104.025 30.5181 104.132 30.5448 104.25 30.5983C104.367 30.6518 104.426 30.7374 104.426 30.8551C104.426 31.0691 104.346 31.1815 104.185 31.1922C104.036 31.2029 103.886 31.2082 103.736 31.2082C103.511 31.2082 103.34 31.2724 103.222 31.4008C103.115 31.5185 103.046 31.6683 103.014 31.8502C102.982 32.0321 102.966 32.214 102.966 32.3959C102.966 33.8511 102.966 35.3063 102.966 36.7615C102.966 38.2167 102.966 39.6773 102.966 41.1432C102.966 41.3251 102.998 41.4856 103.062 41.6247C103.126 41.7531 103.265 41.8173 103.479 41.8173C103.565 41.8173 103.656 41.8173 103.752 41.8173C103.848 41.8066 103.939 41.8012 104.025 41.8012C104.11 41.8012 104.201 41.8333 104.298 41.8975C104.405 41.951 104.458 42.0313 104.458 42.1383ZM119.866 30.7909C119.866 30.9407 119.807 31.0317 119.69 31.0638C119.572 31.0852 119.454 31.0959 119.337 31.0959C118.909 31.0959 118.63 31.2029 118.502 31.4169C118.384 31.6309 118.325 31.9251 118.325 32.2996C118.325 33.6906 118.325 35.0816 118.325 36.4726C118.336 37.8529 118.341 39.2386 118.341 40.6296C118.341 40.8864 118.384 41.1111 118.47 41.3037C118.566 41.4963 118.759 41.6193 119.048 41.6728C119.123 41.6835 119.197 41.6889 119.272 41.6889C119.358 41.6782 119.438 41.6942 119.513 41.737C119.588 41.7798 119.631 41.8333 119.642 41.8975C119.663 41.951 119.679 42.0152 119.69 42.0901C119.722 42.3897 119.738 42.684 119.738 42.9729C119.749 43.2725 119.754 43.5721 119.754 43.8717V44.0161C119.754 44.1231 119.695 44.2141 119.577 44.289C119.46 44.3746 119.358 44.4174 119.272 44.4174C119.069 44.4174 118.898 44.3211 118.759 44.1285C118.62 43.9359 118.491 43.7219 118.374 43.4865C118.267 43.2618 118.138 43.0852 117.988 42.9568C117.774 42.7749 117.512 42.6412 117.202 42.5556C116.892 42.4807 116.571 42.4325 116.239 42.4111C115.918 42.3897 115.624 42.379 115.356 42.379C114.425 42.379 113.494 42.3844 112.563 42.3951C111.633 42.3951 110.702 42.3951 109.771 42.3951C109.535 42.3951 109.3 42.4004 109.065 42.4111C108.84 42.4111 108.61 42.4218 108.374 42.4432C108.332 42.4432 108.289 42.4486 108.246 42.4593C108.203 42.4593 108.155 42.4593 108.102 42.4593C108.005 42.4593 107.898 42.4325 107.781 42.379C107.663 42.3255 107.604 42.2399 107.604 42.1222C107.604 41.9082 107.679 41.7959 107.829 41.7852C107.989 41.7745 108.144 41.7691 108.294 41.7691C108.647 41.7691 108.872 41.6461 108.968 41.4C109.065 41.1432 109.113 40.8703 109.113 40.5814V31.8181C109.113 31.6255 109.081 31.4704 109.016 31.3527C108.952 31.2243 108.808 31.1601 108.583 31.1601C108.497 31.1601 108.407 31.1654 108.31 31.1761C108.225 31.1761 108.139 31.1761 108.053 31.1761C107.968 31.1761 107.872 31.1494 107.765 31.0959C107.658 31.0317 107.604 30.9461 107.604 30.8391C107.604 30.6358 107.663 30.5234 107.781 30.502C107.909 30.4699 108.048 30.4539 108.198 30.4539C108.497 30.4539 108.792 30.4646 109.081 30.486C109.38 30.4967 109.68 30.502 109.979 30.502C110.343 30.502 110.702 30.4967 111.055 30.486C111.408 30.4646 111.766 30.4539 112.13 30.4539C112.226 30.4539 112.307 30.4753 112.371 30.5181C112.435 30.5502 112.467 30.6251 112.467 30.7428C112.467 30.9675 112.387 31.0905 112.226 31.1119C112.077 31.1226 111.921 31.128 111.761 31.128C111.526 31.128 111.354 31.1922 111.247 31.3206C111.151 31.4383 111.087 31.5881 111.055 31.77C111.033 31.9412 111.023 32.1177 111.023 32.2996V40.774C111.023 41.1806 111.119 41.4481 111.312 41.5765C111.504 41.7049 111.782 41.7691 112.146 41.7691C112.681 41.7691 113.216 41.7638 113.751 41.7531C114.286 41.7317 114.821 41.721 115.356 41.721C115.763 41.721 116.041 41.63 116.191 41.4481C116.341 41.2662 116.415 40.9773 116.415 40.5814C116.415 39.1476 116.41 37.7192 116.399 36.2961C116.399 34.8623 116.399 33.4338 116.399 32.0107C116.399 31.7967 116.373 31.6041 116.319 31.4329C116.266 31.2617 116.105 31.1761 115.838 31.1761C115.752 31.1761 115.661 31.1815 115.565 31.1922C115.469 31.1922 115.378 31.1922 115.292 31.1922C115.196 31.1922 115.099 31.1654 115.003 31.1119C114.907 31.0477 114.859 30.9621 114.859 30.8551C114.859 30.7053 114.896 30.6037 114.971 30.5502C115.046 30.4967 115.153 30.4699 115.292 30.4699C115.613 30.4699 115.934 30.4753 116.255 30.486C116.576 30.486 116.897 30.486 117.218 30.486C117.582 30.486 117.946 30.4753 118.309 30.4539C118.673 30.4325 119.037 30.4218 119.401 30.4218C119.508 30.4218 119.609 30.4539 119.706 30.5181C119.813 30.5823 119.866 30.6732 119.866 30.7909ZM133.653 36.4405C133.653 35.8306 133.584 35.21 133.445 34.5787C133.316 33.9367 133.097 33.3429 132.786 32.7972C132.487 32.2515 132.086 31.8128 131.583 31.4811C131.08 31.1494 130.465 30.9835 129.737 30.9835C129.031 30.9835 128.426 31.1601 127.923 31.5132C127.42 31.8663 127.008 32.3264 126.687 32.8935C126.366 33.4499 126.131 34.0544 125.981 34.7071C125.831 35.3491 125.757 35.9644 125.757 36.5529C125.757 37.1628 125.826 37.7834 125.965 38.4147C126.115 39.046 126.345 39.6291 126.655 40.1641C126.976 40.6884 127.388 41.1111 127.891 41.4321C128.405 41.7531 129.02 41.9136 129.737 41.9136C130.465 41.9136 131.08 41.7477 131.583 41.416C132.086 41.0736 132.487 40.6349 132.786 40.0999C133.097 39.5542 133.316 38.9604 133.445 38.3184C133.584 37.6764 133.653 37.0504 133.653 36.4405ZM135.932 36.4084C135.932 37.7138 135.686 38.832 135.194 39.7629C134.712 40.6831 134.006 41.3893 133.075 41.8815C132.155 42.363 131.042 42.6037 129.737 42.6037C128.474 42.6037 127.383 42.363 126.463 41.8815C125.553 41.4 124.852 40.7098 124.36 39.811C123.868 38.9015 123.622 37.8155 123.622 36.5529C123.622 35.6541 123.766 34.8248 124.055 34.0651C124.355 33.3054 124.772 32.6474 125.307 32.091C125.853 31.5239 126.5 31.0905 127.249 30.7909C127.998 30.4806 128.827 30.3255 129.737 30.3255C131.01 30.3255 132.107 30.5662 133.027 31.0477C133.958 31.5292 134.675 32.2247 135.178 33.1342C135.681 34.033 135.932 35.1244 135.932 36.4084ZM148.853 39.169C148.853 38.3665 148.665 37.7299 148.291 37.2591C147.927 36.7883 147.317 36.5529 146.461 36.5529C146.322 36.5529 146.178 36.5529 146.028 36.5529C145.889 36.5422 145.744 36.5368 145.594 36.5368C144.92 36.5368 144.246 36.5529 143.572 36.585V41.4321C143.572 41.6675 143.652 41.8226 143.813 41.8975C143.984 41.9617 144.171 41.9938 144.375 41.9938C144.61 41.9938 144.84 41.9938 145.065 41.9938C145.3 41.9831 145.53 41.9724 145.755 41.9617C146.333 41.9189 146.857 41.8012 147.328 41.6086C147.799 41.4053 148.168 41.1057 148.435 40.7098C148.713 40.3139 148.853 39.8003 148.853 39.169ZM148.002 33.4552C148.002 32.7918 147.852 32.2996 147.552 31.9786C147.264 31.6469 146.884 31.4329 146.413 31.3366C145.942 31.2296 145.429 31.1761 144.872 31.1761C144.787 31.1761 144.637 31.1815 144.423 31.1922C144.219 31.2029 144.027 31.235 143.845 31.2885C143.663 31.3313 143.572 31.4169 143.572 31.5453V35.943C143.754 35.943 143.936 35.9483 144.118 35.959C144.3 35.959 144.476 35.959 144.647 35.959C145.065 35.959 145.509 35.9269 145.98 35.8627C146.45 35.7985 146.846 35.622 147.167 35.3331C147.424 35.1084 147.627 34.8248 147.777 34.4824C147.927 34.1293 148.002 33.7869 148.002 33.4552ZM151.051 38.9283C151.051 39.7201 150.848 40.3942 150.441 40.9506C150.035 41.4963 149.468 41.9136 148.74 42.2025C148.259 42.3844 147.745 42.4914 147.199 42.5235C146.664 42.5556 146.14 42.5716 145.626 42.5716C145.081 42.5716 144.535 42.5663 143.989 42.5556C143.454 42.5342 142.914 42.5235 142.368 42.5235C142.037 42.5235 141.71 42.5342 141.389 42.5556C141.068 42.577 140.742 42.5877 140.41 42.5877C140.325 42.5877 140.223 42.5663 140.105 42.5235C139.998 42.47 139.945 42.3897 139.945 42.2827C139.945 42.1329 139.988 42.0366 140.073 41.9938C140.159 41.951 140.26 41.935 140.378 41.9457C140.496 41.9564 140.603 41.9617 140.699 41.9617C141.02 41.9617 141.239 41.9082 141.357 41.8012C141.475 41.6942 141.55 41.4802 141.582 41.1592C141.603 40.988 141.614 40.8168 141.614 40.6456C141.614 40.4637 141.614 40.2872 141.614 40.116C141.614 38.7678 141.609 37.4249 141.598 36.0874C141.598 34.7392 141.598 33.391 141.598 32.0428C141.598 31.9037 141.577 31.7753 141.534 31.6576C141.502 31.5399 141.416 31.4436 141.277 31.3687C141.17 31.3152 141.047 31.2885 140.908 31.2885C140.769 31.2885 140.64 31.2885 140.523 31.2885C140.426 31.2885 140.314 31.2671 140.186 31.2243C140.068 31.1708 140.009 31.0852 140.009 30.9675C140.009 30.9033 140.057 30.8337 140.153 30.7588C140.25 30.6732 140.33 30.6304 140.394 30.6304C140.533 30.6304 140.672 30.6358 140.811 30.6465C140.951 30.6572 141.09 30.6625 141.229 30.6625C141.721 30.6625 142.208 30.6679 142.689 30.6786C143.171 30.6893 143.658 30.6946 144.15 30.6946C144.514 30.6946 144.872 30.6625 145.225 30.5983C145.578 30.5341 145.937 30.502 146.301 30.502C146.782 30.502 147.253 30.5395 147.713 30.6144C148.173 30.6786 148.585 30.807 148.949 30.9996C149.323 31.1922 149.618 31.4704 149.832 31.8342C150.046 32.198 150.153 32.6741 150.153 33.2626C150.153 33.712 150.03 34.1186 149.783 34.4824C149.548 34.8355 149.243 35.1405 148.869 35.3973C148.505 35.6434 148.125 35.8413 147.729 35.9911C148.253 36.0767 148.767 36.2372 149.27 36.4726C149.783 36.6973 150.206 37.013 150.538 37.4196C150.88 37.8155 151.051 38.3184 151.051 38.9283Z" fill="white"/>
</svg>
