<svg width="64" height="38" viewBox="0 0 64 38" fill="none" xmlns="http://www.w3.org/2000/svg">
<path d="M32.1 32.9996C35.9 29.4996 38.3 24.4996 38.3 18.9996C38.3 13.3996 35.9 8.39961 32.1 4.99961C28.7 1.99961 24.3 0.0996094 19.4 0.0996094C8.90002 0.0996094 0.400024 8.59961 0.400024 18.9996C0.400024 29.4996 8.90002 37.9996 19.4 37.9996C24.3 37.8996 28.7 35.9996 32.1 32.9996Z" fill="#3362AB"/>
<path d="M32.1 33C35.9 29.5 38.3 24.5 38.3 19C38.3 13.4 35.9 8.4 32.1 5" fill="#3362AB"/>
<path d="M32.1 33C35.9 29.5 38.3 24.5 38.3 19C38.3 13.4 35.9 8.4 32.1 5" stroke="#3362AB" stroke-width="0.3097"/>
<path d="M44.8001 0C39.9001 0 35.4001 1.89999 32.1001 4.89999C31.4001 5.49999 30.8001 6.19999 30.2001 6.89999H34.0001C34.5001 7.49999 35.0001 8.19999 35.4001 8.89999H28.7001C28.3001 9.49999 27.9001 10.2 27.6001 10.9H36.5001C36.8001 11.6 37.1001 12.2 37.3001 12.9H26.8001C26.6001 13.6 26.4001 14.2 26.2001 14.9H37.8001C38.1001 16.2 38.2001 17.5 38.2001 18.9C38.2001 21 37.9001 23 37.2001 24.9H26.7001C26.9001 25.6 27.2001 26.3 27.5001 26.9H36.4001C36.1001 27.6 35.7001 28.3 35.3001 28.9H28.6001C29.0001 29.6 29.5001 30.3 30.0001 30.9H33.8001C33.2001 31.6 32.6001 32.3 31.9001 32.9C35.3001 35.9 39.7001 37.8 44.6001 37.8C55.1001 37.8 63.5001 29.3 63.5001 18.8C63.8001 8.5 55.3001 0 44.8001 0Z" fill="#C9191B"/>
<path d="M17 23.6H14.6L16 16.2L12.8 23.6H10.7L10.3 16.3L8.90002 23.6H6.80005L8.60004 14H12.3L12.5 20L15.1 14H18.9L17 23.6Z" fill="white"/>
<path d="M43.4 23.5996C42.8 23.7996 42.2 23.8996 41.7 23.8996C40.5 23.8996 39.8 23.2996 39.8 22.1996C39.8 21.9996 39.8 21.6996 39.9 21.4996L40 20.6996L40.1 20.0996L41.2 14.0996H43.5L43.2 15.8996H44.4L44.1 17.7996H42.9L42.3 21.0996C42.3 21.1996 42.3 21.3996 42.3 21.3996C42.3 21.7996 42.6 21.9996 43.1 21.9996C43.4 21.9996 43.6 21.9996 43.7 21.8996L43.4 23.5996Z" fill="white"/>
<path d="M50.2001 15.8998C50.0001 15.7998 50.0001 15.7998 49.9001 15.7998C49.8001 15.7998 49.7001 15.7998 49.7001 15.7998C49.6001 15.7998 49.5001 15.7998 49.4001 15.7998C48.6001 15.7998 48.1001 16.0998 47.3001 17.0998L47.5001 15.8998H45.6001L44.2001 23.6998H46.6001C47.4001 18.8998 47.8001 18.0998 48.9001 18.0998C49.0001 18.0998 49.1001 18.0998 49.2001 18.0998L49.5001 18.1998L50.2001 15.8998Z" fill="white"/>
<path d="M34 18.3002C34 19.3002 34.6 20.0002 35.8 20.5002C36.8 20.9002 36.9 21.0002 36.9 21.4002C36.9 21.9002 36.5 22.1002 35.5 22.1002C34.8 22.1002 34.1 22.0002 33.4 21.8002L33.1 23.6002H33.2L33.6 23.7002C33.7 23.7002 34 23.8002 34.2 23.8002C34.8 23.8002 35.2 23.9002 35.5 23.9002C38 23.9002 39.2 23.1002 39.2 21.3002C39.2 20.2002 38.7 19.6002 37.5 19.1002C36.5 18.7002 36.4 18.6002 36.4 18.2002C36.4 17.8002 36.8 17.6002 37.6 17.6002C38.1 17.6002 38.7 17.6002 39.3 17.7002L39.6 15.9002C39 15.8002 38.1 15.7002 37.5 15.7002C34.9 15.7002 34 16.9002 34 18.3002Z" fill="white"/>
<path d="M23.0001 20.2002C22.7001 20.2002 22.6001 20.2002 22.5001 20.2002C21.2001 20.2002 20.5001 20.6002 20.5001 21.4002C20.5001 21.9002 20.8001 22.2002 21.3001 22.2002C22.2001 22.1002 22.9001 21.3002 23.0001 20.2002ZM24.7001 23.6002H22.7001L22.8001 22.8002C22.2001 23.4002 21.4001 23.7002 20.3001 23.7002C19.0001 23.7002 18.2001 22.8002 18.2001 21.6002C18.2001 19.7002 19.7001 18.6002 22.3001 18.6002C22.6001 18.6002 22.9001 18.6002 23.3001 18.7002C23.4001 18.4002 23.4001 18.3002 23.4001 18.2002C23.4001 17.7002 23.0001 17.5002 21.9001 17.5002C21.2001 17.5002 20.5001 17.6002 20.0001 17.7002L19.7001 17.8002L19.5001 17.9002L19.8001 16.1002C21.0001 15.8002 21.7001 15.7002 22.6001 15.7002C24.6001 15.7002 25.7001 16.5002 25.7001 18.0002C25.7001 18.4002 25.7001 18.7002 25.5001 19.5002L25.0001 22.3002L24.9001 22.8002L24.8001 23.2002V23.5002L24.7001 23.6002Z" fill="white"/>
<path d="M31.2 18.7996C31.2 18.5996 31.2 18.4996 31.2 18.3996C31.2 17.7996 30.8 17.3996 30.1 17.3996C29.3 17.3996 28.8 17.8996 28.6 18.7996H31.2ZM32.4 23.4996C31.6 23.6996 30.8 23.7996 30 23.7996C27.4 23.7996 26 22.5996 26 20.2996C26 17.5996 27.7 15.5996 30.1 15.5996C32 15.5996 33.3 16.6996 33.3 18.3996C33.3 18.9996 33.2 19.4996 33 20.2996H28.3C28.3 20.3996 28.3 20.4996 28.3 20.4996C28.3 21.3996 29 21.8996 30.4 21.8996C31.2 21.8996 32 21.6996 32.9 21.3996L32.4 23.4996Z" fill="white"/>
<path d="M55.1 19.1002C55.1 18.3002 54.8 17.5002 53.8 17.5002C52.6 17.5002 51.9 18.9002 51.9 20.2002C51.9 21.3002 52.4 22.0002 53.3 22.0002C53.8 22.0002 54.9 21.3002 55.1 20.1002C55.1 19.8002 55.1 19.4002 55.1 19.1002ZM57.6 20.1002C57.2 22.7002 55.4 23.9002 53 23.9002C50.3 23.9002 49.3 22.3002 49.3 20.3002C49.3 17.5002 51.1 15.7002 53.9 15.7002C56.4 15.7002 57.6 17.2002 57.6 19.2002C57.7 19.6002 57.7 19.6002 57.6 20.1002Z" fill="white"/>
</svg>
