<svg width="31" height="31" viewBox="0 0 31 31" fill="none" xmlns="http://www.w3.org/2000/svg">
<path d="M26.2882 19.4695L20.7675 16.9957L20.7523 16.9887C20.4657 16.8661 20.1531 16.8169 19.8427 16.8455C19.5323 16.8742 19.2339 16.9798 18.9746 17.1527C18.944 17.1729 18.9147 17.1948 18.8867 17.2184L16.0343 19.65C14.2273 18.7723 12.3617 16.9207 11.4839 15.1371L13.9191 12.2414C13.9425 12.2121 13.9648 12.1828 13.9859 12.1512C14.1552 11.8925 14.2578 11.5961 14.2848 11.2882C14.3118 10.9803 14.2623 10.6705 14.1406 10.3863V10.3723L11.6597 4.84219C11.4989 4.47101 11.2223 4.16182 10.8713 3.96075C10.5203 3.75968 10.1136 3.67753 9.71207 3.72656C8.12415 3.93552 6.66658 4.71535 5.6116 5.92043C4.55663 7.1255 3.97639 8.67339 3.97926 10.275C3.97926 19.5797 11.5496 27.15 20.8543 27.15C22.4559 27.1529 24.0038 26.5726 25.2088 25.5177C26.4139 24.4627 27.1937 23.0051 27.4027 21.4172C27.4518 21.0158 27.3698 20.6092 27.169 20.2582C26.9681 19.9072 26.6592 19.6306 26.2882 19.4695ZM20.8543 25.275C16.8773 25.2707 13.0646 23.6889 10.2525 20.8768C7.44035 18.0647 5.8586 14.2519 5.85426 10.275C5.84985 9.13065 6.26213 8.02382 7.01411 7.16122C7.76608 6.29862 8.80633 5.73922 9.94059 5.5875C9.94012 5.59218 9.94012 5.59689 9.94059 5.60156L12.4015 11.1094L9.97926 14.0086C9.95467 14.0369 9.93234 14.0671 9.91246 14.0988C9.73611 14.3694 9.63266 14.681 9.61213 15.0034C9.5916 15.3257 9.65468 15.6479 9.79527 15.9387C10.857 18.1102 13.0449 20.2816 15.2398 21.3422C15.5327 21.4815 15.8568 21.5424 16.1803 21.519C16.5038 21.4955 16.8157 21.3886 17.0855 21.2086C17.1156 21.1883 17.1445 21.1664 17.1722 21.143L20.0211 18.7125L25.5289 21.1793H25.5418C25.3919 22.3152 24.8333 23.3575 23.9706 24.1113C23.1078 24.8652 22 25.2789 20.8543 25.275Z" fill="white"/>
</svg>
