<svg width="22" height="15" viewBox="0 0 22 15" fill="none" xmlns="http://www.w3.org/2000/svg">
<path d="M11.9825 14.5C4.46596 14.5 0.178638 9.24474 0 0.5H3.76515C3.88882 6.91842 6.66459 9.63714 8.86321 10.1977V0.5H12.4085V6.03553C14.5796 5.7973 16.8607 3.27477 17.6302 0.5H21.1755C20.8855 1.93908 20.3075 3.30165 19.4776 4.5025C18.6477 5.70335 17.5837 6.71663 16.3523 7.47898C17.7269 8.17555 18.941 9.1615 19.9145 10.3717C20.888 11.582 21.5988 12.989 22 14.5H18.0974C17.7373 13.1876 17.0054 12.0128 15.9934 11.1228C14.9814 10.2328 13.7343 9.66727 12.4085 9.497V14.5H11.9825Z" fill="white"/>
</svg>
