<svg width="21" height="22" viewBox="0 0 21 22" fill="none" xmlns="http://www.w3.org/2000/svg">
<path d="M17.9268 3.5625C15.9512 1.59375 13.3171 0.5 10.5366 0.5C4.7561 0.5 0.0731696 5.16667 0.0731696 10.9271C0.0731696 12.75 0.585366 14.5729 1.46341 16.1042L0 21.5L5.56098 20.0417C7.09756 20.8438 8.78049 21.2812 10.5366 21.2812C16.3171 21.2812 21 16.6146 21 10.8542C20.9268 8.15625 19.9024 5.53125 17.9268 3.5625ZM15.5854 14.6458C15.3659 15.2292 14.3415 15.8125 13.8293 15.8854C13.3902 15.9583 12.8049 15.9583 12.2195 15.8125C11.8537 15.6667 11.3415 15.5208 10.7561 15.2292C8.12195 14.1354 6.43903 11.5104 6.29268 11.2917C6.14634 11.1458 5.19512 9.90625 5.19512 8.59375C5.19512 7.28125 5.85366 6.69792 6.07317 6.40625C6.29268 6.11458 6.58536 6.11458 6.80488 6.11458C6.95122 6.11458 7.17073 6.11458 7.31707 6.11458C7.46341 6.11458 7.68293 6.04167 7.90244 6.55208C8.12195 7.0625 8.63414 8.375 8.70731 8.44792C8.78049 8.59375 8.78049 8.73958 8.70731 8.88542C8.63414 9.03125 8.56097 9.17708 8.41463 9.32292C8.26829 9.46875 8.12195 9.6875 8.04878 9.76042C7.90244 9.90625 7.7561 10.0521 7.90244 10.2708C8.04878 10.5625 8.56097 11.3646 9.36585 12.0937C10.3902 12.9687 11.1951 13.2604 11.4878 13.4063C11.7805 13.5521 11.9268 13.4792 12.0732 13.3333C12.2195 13.1875 12.7317 12.6042 12.878 12.3125C13.0244 12.0208 13.2439 12.0938 13.4634 12.1667C13.6829 12.2396 15 12.8958 15.2195 13.0417C15.5122 13.1875 15.6585 13.2604 15.7317 13.3333C15.8049 13.5521 15.8049 14.0625 15.5854 14.6458Z" fill="white"/>
</svg>
